<?xml version="1.0" standalone="no"?>
<!DOCTYPE svg PUBLIC "-//W3C//DTD SVG 20010904//EN"
 "http://www.w3.org/TR/2001/REC-SVG-20010904/DTD/svg10.dtd">
<svg version="1.0" xmlns="http://www.w3.org/2000/svg"
 width="1024.000000pt" height="1024.000000pt" viewBox="0 0 1024.000000 1024.000000"
 preserveAspectRatio="xMidYMid meet">

<g transform="translate(0.000000,1024.000000) scale(0.100000,-0.100000)"
fill="#000000" stroke="none">
<path d="M2460 5850 l0 -1590 265 0 265 0 0 1330 0 1330 1888 0 c1039 0 1964
3 2055 7 l167 6 0 -2066 0 -2067 265 0 265 0 0 2320 0 2320 -2585 0 -2585 0 0
-1590z"/>
<path d="M4719 6293 c-6 -16 -71 -188 -144 -383 -180 -480 -416 -1100 -513
-1350 -44 -113 -141 -362 -215 -555 -75 -192 -158 -406 -185 -475 l-49 -125
305 -3 c168 -1 309 1 313 5 3 5 46 118 94 253 48 135 96 269 107 298 l19 52
596 -2 596 -3 110 -302 110 -303 314 0 c172 0 313 2 313 5 0 2 -18 51 -41 107
-49 123 -536 1371 -712 1823 -68 176 -182 470 -253 652 l-129 333 -313 0 -312
0 -11 -27z m526 -1233 c101 -278 187 -513 190 -522 7 -17 -16 -18 -385 -18
l-391 0 7 23 c3 12 90 257 192 545 149 418 188 518 195 500 5 -13 91 -250 192
-528z"/>
</g>
</svg>
